<?xml version="1.0" encoding="utf-8"?>
<!-- Generator: Adobe Illustrator 24.0.3, SVG Export Plug-In . SVG Version: 6.00 Build 0)  -->
<svg version="1.1" id="Layer_1" xmlns="http://www.w3.org/2000/svg" xmlns:xlink="http://www.w3.org/1999/xlink" x="0px" y="0px"
	 viewBox="0 0 12 12" style="enable-background:new 0 0 12 12;" xml:space="preserve">
<style type="text/css">
	.st0{fill-rule:evenodd;clip-rule:evenodd;fill:#FFFFFF;}
</style>
<path class="st0" d="M12,6c0,3.3-2.7,6-6,6S0,9.3,0,6s2.7-6,6-6S12,2.7,12,6z M4,6.3c-0.1,0.1-0.4,0.1-0.5,0s-0.1-0.4,0-0.5l2.2-2.2
	c0.1-0.1,0.4-0.1,0.5,0c0,0,0,0,0,0l2.2,2.2c0.1,0.1,0.1,0.4,0,0.5S8.1,6.4,8,6.3L6.4,4.7v3.6c0,0.2-0.2,0.4-0.4,0.4
	c-0.2,0-0.4-0.2-0.4-0.4V4.7L4,6.3z"/>
</svg>
