<svg xmlns="http://www.w3.org/2000/svg" width="20" height="20" viewBox="0 0 24 24">
    <g fill="none" fill-rule="evenodd">
        <g fill="#000" fill-rule="nonzero">
            <path d="M12 1c2.928.001 5.68 1.137 7.749 3.198 2.097 2.09 3.252 4.831 3.251 7.719-.001 2.908-1.152 5.648-3.24 7.713-2.082 2.061-4.839 3.196-7.76 3.196-1.721 0-3.423-.406-4.948-1.175l-6.022 1.37 1.31-5.953C1.463 15.448 1 13.673 1 11.914c.003-2.912 1.153-5.655 3.239-7.719C6.32 2.135 9.077 1 11.999 1zm0 1.719c-5.115 0-9.278 4.127-9.281 9.193 0 1.565.44 3.152 1.274 4.59l.168.29-.87 3.952 4.004-.91.285.154c1.347.732 2.874 1.119 4.416 1.12 5.12 0 9.283-4.124 9.285-9.192 0-2.427-.974-4.736-2.745-6.5-1.745-1.738-4.066-2.696-6.537-2.697zM9.005 7.102c.18.007.378.021.567.439l.047.108c.239.548.663 1.636.722 1.753.063.126.105.272.021.44-.084.167-.12.271-.245.418-.126.146-.279.3-.392.412-.126.125-.257.26-.11.512.146.25.665 1.098 1.414 1.763.96.854 1.763 1.124 2.015 1.25.251.125.398.104.545-.063.147-.168.64-.748.808-.998.168-.251.336-.21.567-.126.23.084 1.464.7 1.715.826.252.125.42.188.483.293.062.105.062.607-.147 1.192-.21.586-1.237 1.15-1.699 1.192-.46.042-.893.208-3.019-.627C9.741 14.88 8.126 12.268 8 12.1c-.126-.167-1.027-1.36-1.027-2.593 0-1.234.65-1.84.88-2.092.23-.25.503-.313.671-.313z"/>
        </g>
    </g>
</svg>
