<svg xmlns="http://www.w3.org/2000/svg" width="24" height="24" viewBox="0 0 24 24">
    <g fill="none" fill-rule="evenodd">
        <g fill="#000" fill-rule="nonzero">
            <g transform="translate(0 2)">
                <path d="M8.5 3.5H23c.552 0 1-.448 1-1s-.448-1-1-1H8.5c-.552 0-1 .448-1 1s.448 1 1 1zM23 9.5H8.5c-.552 0-1 .448-1 1s.448 1 1 1H23c.552 0 1-.448 1-1s-.448-1-1-1zM23 17.5H8.5c-.552 0-1 .448-1 1s.448 1 1 1H23c.552 0 1-.448 1-1s-.448-1-1-1z"/>
                <rect width="3" height="3" x="1" y=".998" rx=".5"/>
                <path d="M3.5 0h-2C.672 0 0 .672 0 1.5v2C0 4.328.672 5 1.5 5h2C4.328 5 5 4.328 5 3.5v-2C5 .672 4.328 0 3.5 0zM4 3.5c0 .276-.224.5-.5.5h-2c-.276 0-.5-.224-.5-.5v-2c0-.276.224-.5.5-.5h2c.276 0 .5.224.5.5v2z"/>
                <rect width="3" height="3" x="1" y="8.998" rx=".5"/>
                <path d="M3.5 8h-2C.672 8 0 8.672 0 9.5v2c0 .828.672 1.5 1.5 1.5h2c.828 0 1.5-.672 1.5-1.5v-2C5 8.672 4.328 8 3.5 8zm.5 3.5c0 .276-.224.5-.5.5h-2c-.276 0-.5-.224-.5-.5v-2c0-.276.224-.5.5-.5h2c.276 0 .5.224.5.5v2z"/>
                <rect width="3" height="3" x="1" y="16.998" rx=".5"/>
                <path d="M3.5 16h-2c-.828 0-1.5.672-1.5 1.5v2c0 .828.672 1.5 1.5 1.5h2c.828 0 1.5-.672 1.5-1.5v-2c0-.828-.672-1.5-1.5-1.5zm.5 3.5c0 .276-.224.5-.5.5h-2c-.276 0-.5-.224-.5-.5v-2c0-.276.224-.5.5-.5h2c.276 0 .5.224.5.5v2z"/>
            </g>
        </g>
    </g>
</svg>
