<svg xmlns="http://www.w3.org/2000/svg" width="20" height="20" viewBox="0 0 24 24">
    <g fill="none" fill-rule="evenodd">
        <g fill="#000" fill-rule="nonzero">
            <g>
                <path d="M3.75 4.5C1.265 4.5-.75 6.515-.75 9s2.015 4.5 4.5 4.5 4.5-2.015 4.5-4.5-2.015-4.5-4.5-4.5zm0 1.5c1.657 0 3 1.343 3 3s-1.343 3-3 3-3-1.343-3-3 1.343-3 3-3zM17.25-.75c-2.485 0-4.5 2.015-4.5 4.5s2.015 4.5 4.5 4.5 4.5-2.015 4.5-4.5-2.015-4.5-4.5-4.5zm0 1.5c1.657 0 3 1.343 3 3s-1.343 3-3 3-3-1.343-3-3 1.343-3 3-3zM17.25 11.25c-2.485 0-4.5 2.015-4.5 4.5s2.015 4.5 4.5 4.5 4.5-2.015 4.5-4.5-2.015-4.5-4.5-4.5zm0 1.5c1.657 0 3 1.343 3 3s-1.343 3-3 3-3-1.343-3-3 1.343-3 3-3z" transform="translate(1 2)"/>
                <path d="M13.482 4.411c.386-.15.82.041.971.427.138.354-.012.749-.335.928l-.092.043L7.518 8.34c-.386.15-.82-.041-.971-.427-.138-.354.012-.749.335-.928l.092-.043 6.508-2.531zM6.434 10.343c.17-.34.563-.495.912-.375l.094.04 6.79 3.394c.37.185.521.636.336 1.006-.17.34-.563.495-.912.375l-.094-.04-6.79-3.394c-.37-.185-.521-.636-.336-1.006z" transform="translate(1 2)"/>
            </g>
        </g>
    </g>
</svg>
