<svg xmlns="http://www.w3.org/2000/svg" width="24" height="24" viewBox="0 0 24 24">
    <g fill="none" fill-rule="evenodd">
        <g fill="#CFCFCF" fill-rule="nonzero">
            <g>
                <path d="M0 12c0 6.627 5.373 12 12 12s12-5.373 12-12S18.627 0 12 0C5.376.007.007 5.376 0 12zm5.217-.522c0-.576.468-1.043 1.044-1.043h3.913c.144 0 .26-.117.26-.261V6.26c0-.576.468-1.044 1.044-1.044h1.044c.576 0 1.043.468 1.043 1.044v3.913c0 .144.117.26.261.26h3.913c.576 0 1.044.468 1.044 1.044v1.044c0 .576-.468 1.043-1.044 1.043h-3.913c-.144 0-.26.117-.26.261v3.913c0 .576-.468 1.044-1.044 1.044h-1.044c-.576 0-1.043-.468-1.043-1.044v-3.913c0-.144-.117-.26-.261-.26H6.26c-.576 0-1.044-.468-1.044-1.044v-1.044z"/>
            </g>
        </g>
    </g>
</svg>
