<svg xmlns="http://www.w3.org/2000/svg" width="16" height="16" viewBox="0 0 16 16">
    <g fill="none" fill-rule="evenodd">
        <g fill="#000" fill-rule="nonzero">
            <path d="M3.724 5.12c.152 0 .275.124.275.276v10.279c0 .152-.123.275-.275.275H.531c-.152 0-.276-.123-.276-.275V5.395c0-.151.124-.274.276-.274zM11.888 5c3.61 0 4.073 2.691 4.073 5.036v5.639c0 .152-.123.275-.275.275h-3.192c-.152 0-.275-.123-.275-.275V10.5c-.01-1.38-.152-2.274-1.418-2.275-1.34 0-1.608.904-1.608 2.363v5.086c0 .152-.123.275-.275.275h-3.19c-.153 0-.276-.123-.276-.275V5.395c0-.151.123-.274.275-.274H8.79c.152 0 .276.123.276.275v.54C9.692 5.356 10.719 5 11.888 5zM2.128.01c1.172 0 2.126.955 2.126 2.127 0 1.174-.954 2.128-2.127 2.128C.954 4.266 0 3.312 0 2.138 0 .965.955.011 2.127.011z"/>
        </g>
    </g>
</svg>
