<svg xmlns="http://www.w3.org/2000/svg" width="16" height="16" viewBox="0 0 16 16">
    <g fill="none" fill-rule="evenodd">
        <g fill="#000" fill-rule="nonzero">
            <path d="M16 3.543c-.63.27-1.26.44-1.888.508.71-.426 1.191-1.029 1.442-1.807-.65.386-1.344.65-2.082.792C12.822 2.346 12.024 2 11.076 2c-.907 0-1.68.32-2.32.96-.64.639-.959 1.412-.959 2.32 0 .243.027.493.081.75-1.34-.067-2.597-.404-3.771-1.01-1.175-.606-2.171-1.413-2.99-2.421C.819 3.106.67 3.659.67 4.254c0 .561.132 1.083.396 1.563s.62.87 1.066 1.168c-.528-.02-1.022-.16-1.482-.417v.04c0 .793.249 1.488.746 2.087.497.6 1.125.976 1.883 1.132-.284.075-.572.112-.863.112-.19 0-.396-.017-.62-.05.21.656.597 1.195 1.158 1.619.562.423 1.198.64 1.909.654-1.191.934-2.548 1.401-4.071 1.401-.291 0-.555-.013-.792-.04 1.523.981 3.201 1.472 5.036 1.472 1.164 0 2.257-.185 3.278-.554 1.023-.368 1.896-.862 2.62-1.482.724-.62 1.348-1.331 1.873-2.137.524-.805.915-1.646 1.173-2.523.257-.876.385-1.754.385-2.634 0-.19-.003-.332-.01-.427.643-.466 1.191-1.032 1.645-1.695z"/>
        </g>
    </g>
</svg>
